<svg width="275" height="48" viewBox="0 0 275 48" fill="none" xmlns="http://www.w3.org/2000/svg">
<path d="M48.864 4.016V4.976C48.128 5.328 47.36 6.016 46.56 7.04C45.76 8.064 45.04 9.616 44.4 11.696L36.336 38C35.952 37.968 35.536 37.952 35.088 37.952C34.672 37.92 34.24 37.904 33.792 37.904C33.376 37.904 32.944 37.92 32.496 37.952C32.08 37.952 31.68 37.968 31.296 38L21.216 7.232C20.96 6.4 20.624 5.824 20.208 5.504C19.792 5.184 19.312 5.008 18.768 4.976V4.016C19.856 4.048 21.136 4.08 22.608 4.112C24.08 4.144 25.568 4.16 27.072 4.16C28.576 4.16 29.984 4.144 31.296 4.112C32.64 4.08 33.712 4.048 34.512 4.016V4.976C33.52 5.008 32.752 5.136 32.208 5.36C31.664 5.552 31.344 5.936 31.248 6.512C31.184 7.056 31.344 7.888 31.728 9.008L38.304 28.976L36.912 31.904L41.76 16.4C42.656 13.552 43.088 11.312 43.056 9.68C43.024 8.016 42.64 6.832 41.904 6.128C41.168 5.392 40.16 5.008 38.88 4.976V4.016C40.096 4.048 41.168 4.08 42.096 4.112C43.056 4.144 44.08 4.16 45.168 4.16C45.808 4.16 46.464 4.144 47.136 4.112C47.808 4.08 48.384 4.048 48.864 4.016ZM14.16 4.016V4.976C13.616 5.072 13.248 5.36 13.056 5.84C12.896 6.288 12.848 6.816 12.912 7.424C13.008 8 13.136 8.528 13.296 9.008L20.544 29.408L19.2 31.472L24.96 15.872L25.632 17.264L18.288 38C17.904 37.968 17.488 37.952 17.04 37.952C16.624 37.92 16.192 37.904 15.744 37.904C15.328 37.904 14.896 37.92 14.448 37.952C14.032 37.952 13.632 37.968 13.248 38L2.112 8.048C1.696 6.928 1.232 6.144 0.72 5.696C0.208 5.248 -0.272 5.008 -0.72 4.976V4.016C0.432 4.048 1.776 4.08 3.312 4.112C4.88 4.144 6.368 4.16 7.776 4.16C9.184 4.16 10.432 4.144 11.52 4.112C12.608 4.08 13.488 4.048 14.16 4.016ZM52.113 38.336C50.609 38.336 49.377 38.048 48.417 37.472C47.457 36.896 46.753 36.144 46.305 35.216C45.889 34.288 45.681 33.312 45.681 32.288C45.681 30.944 45.985 29.856 46.593 29.024C47.201 28.16 47.985 27.472 48.945 26.96C49.937 26.416 50.977 25.968 52.065 25.616C53.153 25.264 54.177 24.928 55.137 24.608C56.129 24.256 56.929 23.856 57.537 23.408C58.145 22.928 58.449 22.32 58.449 21.584V17.312C58.449 16.8 58.353 16.24 58.161 15.632C58.001 15.024 57.681 14.496 57.201 14.048C56.721 13.6 56.001 13.376 55.041 13.376C54.529 13.376 54.033 13.456 53.553 13.616C53.105 13.744 52.705 13.936 52.353 14.192C53.473 14.608 54.289 15.2 54.801 15.968C55.313 16.704 55.569 17.52 55.569 18.416C55.569 19.696 55.121 20.704 54.225 21.44C53.329 22.176 52.273 22.544 51.057 22.544C49.777 22.544 48.785 22.144 48.081 21.344C47.377 20.544 47.025 19.552 47.025 18.368C47.025 17.376 47.265 16.544 47.745 15.872C48.257 15.168 49.009 14.528 50.001 13.952C50.961 13.408 52.113 13.024 53.457 12.8C54.801 12.544 56.209 12.416 57.681 12.416C59.249 12.416 60.705 12.576 62.049 12.896C63.393 13.184 64.545 13.824 65.505 14.816C66.177 15.52 66.609 16.4 66.801 17.456C66.993 18.512 67.089 19.872 67.089 21.536V34.4C67.089 35.2 67.137 35.744 67.233 36.032C67.361 36.32 67.569 36.464 67.857 36.464C68.113 36.464 68.353 36.384 68.577 36.224C68.833 36.064 69.073 35.904 69.297 35.744L69.777 36.56C69.073 37.168 68.193 37.616 67.137 37.904C66.113 38.192 65.025 38.336 63.873 38.336C62.497 38.336 61.425 38.176 60.657 37.856C59.921 37.504 59.393 37.056 59.073 36.512C58.785 35.936 58.625 35.328 58.593 34.688C57.921 35.744 57.073 36.624 56.049 37.328C55.057 38 53.745 38.336 52.113 38.336ZM56.673 34.496C57.025 34.496 57.329 34.448 57.585 34.352C57.873 34.224 58.161 34 58.449 33.68V23.552C58.225 23.968 57.921 24.384 57.537 24.8C57.185 25.184 56.817 25.584 56.433 26C56.049 26.416 55.681 26.864 55.329 27.344C55.009 27.824 54.737 28.384 54.513 29.024C54.321 29.632 54.225 30.352 54.225 31.184C54.225 32.4 54.449 33.264 54.897 33.776C55.377 34.256 55.969 34.496 56.673 34.496ZM88.653 12.416C89.805 12.416 90.701 12.672 91.341 13.184C91.981 13.664 92.429 14.288 92.685 15.056C92.941 15.792 93.069 16.528 93.069 17.264C93.069 18.704 92.653 19.856 91.821 20.72C91.021 21.552 89.965 21.968 88.653 21.968C87.245 21.968 86.173 21.648 85.437 21.008C84.733 20.368 84.381 19.536 84.381 18.512C84.381 17.424 84.605 16.528 85.053 15.824C85.533 15.12 86.125 14.528 86.829 14.048C86.253 14.048 85.741 14.16 85.293 14.384C84.909 14.544 84.541 14.768 84.189 15.056C83.837 15.344 83.533 15.68 83.277 16.064C83.021 16.416 82.813 16.816 82.653 17.264C82.525 17.712 82.461 18.176 82.461 18.656V33.056C82.461 34.592 82.781 35.632 83.421 36.176C84.061 36.72 85.117 36.992 86.589 36.992V38C85.853 37.968 84.749 37.936 83.277 37.904C81.837 37.84 80.349 37.808 78.813 37.808C77.373 37.808 75.917 37.84 74.445 37.904C72.973 37.936 71.869 37.968 71.133 38V36.992C72.125 36.992 72.813 36.752 73.197 36.272C73.613 35.792 73.821 34.88 73.821 33.536V18.32C73.821 16.88 73.629 15.824 73.245 15.152C72.861 14.448 72.157 14.096 71.133 14.096V13.088C72.157 13.184 73.149 13.232 74.109 13.232C75.709 13.232 77.197 13.184 78.573 13.088C79.981 12.96 81.277 12.784 82.461 12.56V16.016C82.877 15.184 83.389 14.512 83.997 14C84.605 13.456 85.293 13.056 86.061 12.8C86.861 12.544 87.725 12.416 88.653 12.416ZM119.538 12.56V32.768C119.538 34.208 119.73 35.28 120.114 35.984C120.53 36.656 121.234 36.992 122.226 36.992V38C121.234 37.904 120.242 37.856 119.25 37.856C117.65 37.856 116.162 37.904 114.786 38C113.41 38.096 112.114 38.272 110.898 38.528V35.072C110.13 36.352 109.09 37.28 107.778 37.856C106.498 38.4 104.994 38.672 103.266 38.672C101.794 38.672 100.626 38.48 99.7624 38.096C98.9304 37.744 98.2904 37.296 97.8424 36.752C97.3624 36.176 97.0104 35.408 96.7864 34.448C96.5624 33.488 96.4504 32.192 96.4504 30.56V18.32C96.4504 16.88 96.2584 15.824 95.8744 15.152C95.4904 14.448 94.7864 14.096 93.7624 14.096V13.088C94.7864 13.184 95.7784 13.232 96.7384 13.232C98.3384 13.232 99.8264 13.184 101.202 13.088C102.61 12.96 103.906 12.784 105.09 12.56V33.152C105.09 33.824 105.17 34.384 105.33 34.832C105.49 35.28 105.746 35.616 106.098 35.84C106.45 36.064 106.898 36.176 107.442 36.176C108.05 36.176 108.61 36.032 109.122 35.744C109.634 35.456 110.05 35.056 110.37 34.544C110.722 34 110.898 33.392 110.898 32.72V18.32C110.898 16.88 110.706 15.824 110.322 15.152C109.938 14.448 109.234 14.096 108.21 14.096V13.088C109.234 13.184 110.226 13.232 111.186 13.232C112.786 13.232 114.274 13.184 115.65 13.088C117.058 12.96 118.354 12.784 119.538 12.56ZM143.062 12.416C144.534 12.416 145.686 12.608 146.518 12.992C147.382 13.344 148.038 13.792 148.486 14.336C148.966 14.912 149.318 15.68 149.542 16.64C149.766 17.6 149.878 18.896 149.878 20.528V33.536C149.878 34.88 150.07 35.792 150.454 36.272C150.87 36.752 151.574 36.992 152.566 36.992V38C151.926 37.968 150.95 37.936 149.638 37.904C148.358 37.84 147.094 37.808 145.846 37.808C144.502 37.808 143.19 37.84 141.91 37.904C140.63 37.936 139.67 37.968 139.03 38V36.992C139.862 36.992 140.438 36.752 140.758 36.272C141.078 35.792 141.238 34.88 141.238 33.536V17.936C141.238 17.264 141.158 16.704 140.998 16.256C140.838 15.808 140.582 15.472 140.23 15.248C139.91 15.024 139.462 14.912 138.886 14.912C138.31 14.912 137.75 15.056 137.206 15.344C136.694 15.632 136.262 16.048 135.91 16.592C135.59 17.104 135.43 17.696 135.43 18.368V33.536C135.43 34.88 135.59 35.792 135.91 36.272C136.262 36.752 136.838 36.992 137.638 36.992V38C137.03 37.968 136.134 37.936 134.95 37.904C133.766 37.84 132.55 37.808 131.302 37.808C129.958 37.808 128.598 37.84 127.222 37.904C125.846 37.936 124.806 37.968 124.102 38V36.992C125.094 36.992 125.782 36.752 126.166 36.272C126.582 35.792 126.79 34.88 126.79 33.536V18.32C126.79 16.88 126.598 15.824 126.214 15.152C125.83 14.448 125.126 14.096 124.102 14.096V13.088C125.126 13.184 126.118 13.232 127.078 13.232C128.678 13.232 130.166 13.184 131.542 13.088C132.95 12.96 134.246 12.784 135.43 12.56V16.016C136.198 14.736 137.222 13.824 138.502 13.28C139.814 12.704 141.334 12.416 143.062 12.416ZM163.467 47.024C161.291 47.024 159.403 46.848 157.803 46.496C156.235 46.176 155.019 45.696 154.155 45.056C153.291 44.448 152.859 43.696 152.859 42.8C152.859 41.904 153.307 41.056 154.203 40.256C155.099 39.488 156.523 38.88 158.475 38.432L158.955 39.2C158.443 39.808 158.091 40.352 157.899 40.832C157.739 41.344 157.659 41.824 157.659 42.272C157.659 43.52 158.219 44.48 159.339 45.152C160.491 45.856 162.091 46.208 164.139 46.208C165.579 46.208 166.779 46 167.739 45.584C168.731 45.2 169.467 44.656 169.947 43.952C170.459 43.248 170.715 42.448 170.715 41.552C170.715 40.656 170.379 39.888 169.707 39.248C169.035 38.608 167.675 38.288 165.627 38.288H163.035C161.563 38.288 160.331 38.096 159.339 37.712C158.347 37.328 157.595 36.8 157.083 36.128C156.571 35.424 156.315 34.608 156.315 33.68C156.315 32.176 156.907 30.912 158.091 29.888C159.275 28.864 160.795 27.952 162.651 27.152L163.083 27.536C162.763 27.76 162.427 28.032 162.075 28.352C161.723 28.672 161.547 29.136 161.547 29.744C161.547 30.768 162.123 31.28 163.275 31.28H167.931C170.011 31.28 171.819 31.504 173.355 31.952C174.923 32.4 176.139 33.136 177.003 34.16C177.899 35.152 178.347 36.464 178.347 38.096C178.347 39.696 177.819 41.168 176.763 42.512C175.739 43.888 174.139 44.976 171.963 45.776C169.787 46.608 166.955 47.024 163.467 47.024ZM164.139 27.776C162.155 27.776 160.379 27.504 158.811 26.96C157.275 26.416 156.059 25.584 155.163 24.464C154.267 23.312 153.819 21.856 153.819 20.096C153.819 18.336 154.267 16.896 155.163 15.776C156.059 14.624 157.275 13.776 158.811 13.232C160.379 12.688 162.155 12.416 164.139 12.416C166.123 12.416 167.883 12.688 169.419 13.232C170.987 13.776 172.219 14.624 173.115 15.776C174.011 16.896 174.459 18.336 174.459 20.096C174.459 21.856 174.011 23.312 173.115 24.464C172.219 25.584 170.987 26.416 169.419 26.96C167.883 27.504 166.123 27.776 164.139 27.776ZM164.139 26.912C164.747 26.912 165.227 26.416 165.579 25.424C165.931 24.432 166.107 22.656 166.107 20.096C166.107 17.536 165.931 15.76 165.579 14.768C165.227 13.776 164.747 13.28 164.139 13.28C163.531 13.28 163.051 13.776 162.699 14.768C162.347 15.76 162.171 17.536 162.171 20.096C162.171 22.656 162.347 24.432 162.699 25.424C163.051 26.416 163.531 26.912 164.139 26.912ZM171.963 16.64L170.955 16.304C171.467 14.96 172.251 13.888 173.307 13.088C174.395 12.256 175.579 11.84 176.859 11.84C177.979 11.84 178.811 12.144 179.355 12.752C179.899 13.36 180.171 14.112 180.171 15.008C180.171 15.936 179.915 16.656 179.403 17.168C178.923 17.68 178.331 17.936 177.627 17.936C177.019 17.936 176.459 17.728 175.947 17.312C175.467 16.896 175.195 16.272 175.131 15.44C175.067 14.608 175.371 13.552 176.043 12.272L176.235 12.608C175.115 13.024 174.235 13.536 173.595 14.144C172.955 14.752 172.411 15.584 171.963 16.64Z" fill="#14213D"/>
<path d="M215.706 4.016V4.928C214.618 5.216 213.402 5.744 212.058 6.512C210.746 7.28 209.338 8.512 207.834 10.208L199.002 20.24L202.89 15.152L214.266 34.112C214.682 34.784 215.098 35.344 215.514 35.792C215.93 36.24 216.49 36.656 217.194 37.04V38C215.85 37.936 214.41 37.904 212.874 37.904C211.37 37.872 209.93 37.856 208.554 37.856C207.818 37.856 206.906 37.872 205.818 37.904C204.73 37.904 203.354 37.936 201.69 38V37.04C203.194 36.976 204.058 36.8 204.282 36.512C204.538 36.224 204.426 35.68 203.946 34.88L196.986 23.12C196.666 22.544 196.378 22.112 196.122 21.824C195.866 21.536 195.61 21.328 195.354 21.2C195.13 21.072 194.826 20.992 194.442 20.96V19.952C195.85 19.888 197.178 19.424 198.426 18.56C199.674 17.664 201.178 16.224 202.938 14.24L204.57 12.416C205.914 10.912 206.618 9.616 206.682 8.528C206.778 7.408 206.442 6.544 205.674 5.936C204.938 5.296 203.962 4.96 202.746 4.928V4.016C203.642 4.048 204.474 4.08 205.242 4.112C206.042 4.112 206.874 4.128 207.738 4.16C208.634 4.16 209.674 4.16 210.858 4.16C211.882 4.16 212.778 4.144 213.546 4.112C214.346 4.08 215.066 4.048 215.706 4.016ZM198.138 4.016V4.976C197.178 5.008 196.442 5.136 195.93 5.36C195.45 5.552 195.13 5.936 194.97 6.512C194.81 7.056 194.73 7.92 194.73 9.104V32.912C194.73 34.064 194.81 34.928 194.97 35.504C195.162 36.08 195.498 36.464 195.978 36.656C196.458 36.848 197.178 36.976 198.138 37.04V38C197.21 37.936 196.01 37.904 194.538 37.904C193.098 37.872 191.626 37.856 190.122 37.856C188.394 37.856 186.762 37.872 185.226 37.904C183.722 37.904 182.506 37.936 181.578 38V37.04C182.57 36.976 183.306 36.848 183.786 36.656C184.266 36.464 184.586 36.08 184.746 35.504C184.906 34.928 184.986 34.064 184.986 32.912V9.104C184.986 7.92 184.906 7.056 184.746 6.512C184.586 5.936 184.25 5.552 183.738 5.36C183.258 5.136 182.538 5.008 181.578 4.976V4.016C182.506 4.048 183.722 4.08 185.226 4.112C186.762 4.144 188.394 4.16 190.122 4.16C191.626 4.16 193.098 4.144 194.538 4.112C196.01 4.08 197.21 4.048 198.138 4.016ZM224.15 0.463997C225.814 0.463997 227.094 0.815997 227.99 1.52C228.918 2.192 229.382 3.216 229.382 4.592C229.382 5.968 228.918 7.008 227.99 7.712C227.094 8.384 225.814 8.72 224.15 8.72C222.486 8.72 221.19 8.384 220.262 7.712C219.366 7.008 218.918 5.968 218.918 4.592C218.918 3.216 219.366 2.192 220.262 1.52C221.19 0.815997 222.486 0.463997 224.15 0.463997ZM228.758 12.56V33.536C228.758 34.88 228.95 35.792 229.334 36.272C229.75 36.752 230.454 36.992 231.446 36.992V38C230.806 37.968 229.846 37.936 228.566 37.904C227.286 37.84 225.974 37.808 224.63 37.808C223.286 37.808 221.926 37.84 220.55 37.904C219.174 37.936 218.134 37.968 217.43 38V36.992C218.422 36.992 219.11 36.752 219.494 36.272C219.91 35.792 220.118 34.88 220.118 33.536V18.32C220.118 16.88 219.926 15.824 219.542 15.152C219.158 14.448 218.454 14.096 217.43 14.096V13.088C218.454 13.184 219.446 13.232 220.406 13.232C222.006 13.232 223.494 13.184 224.87 13.088C226.278 12.96 227.574 12.784 228.758 12.56ZM244.362 5.312V13.088H249.066V14.048H244.362V33.968C244.362 34.576 244.474 35.024 244.698 35.312C244.922 35.568 245.29 35.696 245.802 35.696C246.154 35.696 246.57 35.6 247.05 35.408C247.53 35.184 247.978 34.816 248.394 34.304L249.114 34.88C248.442 36.032 247.546 36.96 246.426 37.664C245.338 38.336 243.962 38.672 242.298 38.672C241.242 38.672 240.282 38.528 239.418 38.24C238.586 37.984 237.898 37.584 237.354 37.04C236.65 36.336 236.202 35.472 236.01 34.448C235.818 33.392 235.722 32.032 235.722 30.368V14.048H232.074V13.088H235.722V7.424C237.418 7.424 238.954 7.264 240.33 6.944C241.738 6.592 243.082 6.048 244.362 5.312ZM256.535 38.336C255.031 38.336 253.799 38.048 252.839 37.472C251.879 36.896 251.175 36.144 250.727 35.216C250.311 34.288 250.103 33.312 250.103 32.288C250.103 30.944 250.407 29.856 251.015 29.024C251.623 28.16 252.407 27.472 253.367 26.96C254.359 26.416 255.399 25.968 256.487 25.616C257.575 25.264 258.599 24.928 259.559 24.608C260.551 24.256 261.351 23.856 261.959 23.408C262.567 22.928 262.871 22.32 262.871 21.584V17.312C262.871 16.8 262.775 16.24 262.583 15.632C262.423 15.024 262.103 14.496 261.623 14.048C261.143 13.6 260.423 13.376 259.463 13.376C258.951 13.376 258.455 13.456 257.975 13.616C257.527 13.744 257.127 13.936 256.775 14.192C257.895 14.608 258.711 15.2 259.223 15.968C259.735 16.704 259.991 17.52 259.991 18.416C259.991 19.696 259.543 20.704 258.647 21.44C257.751 22.176 256.695 22.544 255.479 22.544C254.199 22.544 253.207 22.144 252.503 21.344C251.799 20.544 251.447 19.552 251.447 18.368C251.447 17.376 251.687 16.544 252.167 15.872C252.679 15.168 253.431 14.528 254.423 13.952C255.383 13.408 256.535 13.024 257.879 12.8C259.223 12.544 260.631 12.416 262.103 12.416C263.671 12.416 265.127 12.576 266.471 12.896C267.815 13.184 268.967 13.824 269.927 14.816C270.599 15.52 271.031 16.4 271.223 17.456C271.415 18.512 271.511 19.872 271.511 21.536V34.4C271.511 35.2 271.559 35.744 271.655 36.032C271.783 36.32 271.991 36.464 272.279 36.464C272.535 36.464 272.775 36.384 272.999 36.224C273.255 36.064 273.495 35.904 273.719 35.744L274.199 36.56C273.495 37.168 272.615 37.616 271.559 37.904C270.535 38.192 269.447 38.336 268.295 38.336C266.919 38.336 265.847 38.176 265.079 37.856C264.343 37.504 263.815 37.056 263.495 36.512C263.207 35.936 263.047 35.328 263.015 34.688C262.343 35.744 261.495 36.624 260.471 37.328C259.479 38 258.167 38.336 256.535 38.336ZM261.095 34.496C261.447 34.496 261.751 34.448 262.007 34.352C262.295 34.224 262.583 34 262.871 33.68V23.552C262.647 23.968 262.343 24.384 261.959 24.8C261.607 25.184 261.239 25.584 260.855 26C260.471 26.416 260.103 26.864 259.751 27.344C259.431 27.824 259.159 28.384 258.935 29.024C258.743 29.632 258.647 30.352 258.647 31.184C258.647 32.4 258.871 33.264 259.319 33.776C259.799 34.256 260.391 34.496 261.095 34.496Z" fill="#FCA311"/>
</svg>
