<svg width="275" height="48" fill="none" xmlns="http://www.w3.org/2000/svg"><path d="M48.864 4.016v.96c-.736.352-1.504 1.04-2.304 2.064-.8 1.024-1.52 2.576-2.16 4.656L36.336 38c-.384-.032-.8-.048-1.248-.048a16.907 16.907 0 00-1.296-.048c-.416 0-.848.016-1.296.048-.416 0-.816.016-1.2.048L21.216 7.232c-.256-.832-.592-1.408-1.008-1.728a2.552 2.552 0 00-1.44-.528v-.96c1.088.032 2.368.064 3.84.096s2.96.048 4.464.048c1.504 0 2.912-.016 4.224-.048 1.344-.032 2.416-.064 3.216-.096v.96c-.992.032-1.76.16-2.304.384-.544.192-.864.576-.96 1.152-.064.544.096 1.376.48 2.496l6.576 19.968-1.392 2.928L41.76 16.4c.896-2.848 1.328-5.088 1.296-6.72-.032-1.664-.416-2.848-1.152-3.552-.736-.736-1.744-1.12-3.024-1.152v-.96c1.216.032 2.288.064 3.216.096.96.032 1.984.048 3.072.048.64 0 1.296-.016 1.968-.048a93.1 93.1 0 001.728-.096zm-34.704 0v.96c-.544.096-.912.384-1.104.864-.16.448-.208.976-.144 1.584.096.576.224 1.104.384 1.584l7.248 20.4-1.344 2.064 5.76-15.6.672 1.392L18.288 38c-.384-.032-.8-.048-1.248-.048a16.907 16.907 0 00-1.296-.048c-.416 0-.848.016-1.296.048-.416 0-.816.016-1.2.048L2.112 8.048c-.416-1.12-.88-1.904-1.392-2.352-.512-.448-.992-.688-1.44-.72v-.96c1.152.032 2.496.064 4.032.096 1.568.032 3.056.048 4.464.048 1.408 0 2.656-.016 3.744-.048s1.968-.064 2.64-.096zm37.953 34.32c-1.504 0-2.736-.288-3.696-.864-.96-.576-1.664-1.328-2.112-2.256a7.079 7.079 0 01-.624-2.928c0-1.344.304-2.432.912-3.264a6.663 6.663 0 012.352-2.064 17.99 17.99 0 013.12-1.344 366.38 366.38 0 003.072-1.008c.992-.352 1.792-.752 2.4-1.2.608-.48.912-1.088.912-1.824v-4.272c0-.512-.096-1.072-.288-1.68a3.273 3.273 0 00-.96-1.584c-.48-.448-1.2-.672-2.16-.672-.512 0-1.008.08-1.488.24-.448.128-.848.32-1.2.576 1.12.416 1.936 1.008 2.448 1.776.512.736.768 1.552.768 2.448 0 1.28-.448 2.288-1.344 3.024-.896.736-1.952 1.104-3.168 1.104-1.28 0-2.272-.4-2.976-1.2-.704-.8-1.056-1.792-1.056-2.976 0-.992.24-1.824.72-2.496.512-.704 1.264-1.344 2.256-1.92.96-.544 2.112-.928 3.456-1.152a22.54 22.54 0 014.224-.384c1.568 0 3.024.16 4.368.48a6.648 6.648 0 013.456 1.92c.672.704 1.104 1.584 1.296 2.64.192 1.056.288 2.416.288 4.08V34.4c0 .8.048 1.344.144 1.632.128.288.336.432.624.432.256 0 .496-.08.72-.24.256-.16.496-.32.72-.48l.48.816c-.704.608-1.584 1.056-2.64 1.344a12.005 12.005 0 01-3.264.432c-1.376 0-2.448-.16-3.216-.48-.736-.352-1.264-.8-1.584-1.344a4.544 4.544 0 01-.48-1.824 9.095 9.095 0 01-2.544 2.64c-.992.672-2.304 1.008-3.936 1.008zm4.56-3.84c.352 0 .656-.048.912-.144.288-.128.576-.352.864-.672V23.552a6.176 6.176 0 01-.912 1.248L56.433 26a15.44 15.44 0 00-1.104 1.344c-.32.48-.592 1.04-.816 1.68-.192.608-.288 1.328-.288 2.16 0 1.216.224 2.08.672 2.592.48.48 1.072.72 1.776.72zm31.98-22.08c1.152 0 2.048.256 2.688.768a3.779 3.779 0 011.344 1.872c.256.736.384 1.472.384 2.208 0 1.44-.416 2.592-1.248 3.456-.8.832-1.856 1.248-3.168 1.248-1.408 0-2.48-.32-3.216-.96-.704-.64-1.056-1.472-1.056-2.496 0-1.088.224-1.984.672-2.688a6.697 6.697 0 011.776-1.776c-.576 0-1.088.112-1.536.336-.384.16-.752.384-1.104.672a4.568 4.568 0 00-.912 1.008 4.732 4.732 0 00-.624 1.2 5.042 5.042 0 00-.192 1.392v14.4c0 1.536.32 2.576.96 3.12.64.544 1.696.816 3.168.816V38c-.736-.032-1.84-.064-3.312-.096a100.601 100.601 0 00-8.832 0c-1.472.032-2.576.064-3.312.096v-1.008c.992 0 1.68-.24 2.064-.72.416-.48.624-1.392.624-2.736V18.32c0-1.44-.192-2.496-.576-3.168-.384-.704-1.088-1.056-2.112-1.056v-1.008c1.024.096 2.016.144 2.976.144 1.6 0 3.088-.048 4.464-.144a40.924 40.924 0 003.888-.528v3.456c.416-.832.928-1.504 1.536-2.016a5.83 5.83 0 012.064-1.2 8.46 8.46 0 012.592-.384zm30.885.144v20.208c0 1.44.192 2.512.576 3.216.416.672 1.12 1.008 2.112 1.008V38a30.878 30.878 0 00-2.976-.144c-1.6 0-3.088.048-4.464.144a28.512 28.512 0 00-3.888.528v-3.456c-.768 1.28-1.808 2.208-3.12 2.784-1.28.544-2.784.816-4.512.816-1.472 0-2.64-.192-3.504-.576-.832-.352-1.472-.8-1.92-1.344-.48-.576-.832-1.344-1.056-2.304-.224-.96-.336-2.256-.336-3.888V18.32c0-1.44-.192-2.496-.576-3.168-.384-.704-1.088-1.056-2.112-1.056v-1.008c1.024.096 2.016.144 2.976.144 1.6 0 3.088-.048 4.464-.144a40.924 40.924 0 003.888-.528v20.592c0 .672.08 1.232.24 1.68.16.448.416.784.768 1.008.352.224.8.336 1.344.336.608 0 1.168-.144 1.68-.432a3.447 3.447 0 001.248-1.2 3.286 3.286 0 00.528-1.824v-14.4c0-1.44-.192-2.496-.576-3.168-.384-.704-1.088-1.056-2.112-1.056v-1.008c1.024.096 2.016.144 2.976.144 1.6 0 3.088-.048 4.464-.144a40.924 40.924 0 003.888-.528zm23.524-.144c1.472 0 2.624.192 3.456.576.864.352 1.52.8 1.968 1.344.48.576.832 1.344 1.056 2.304.224.96.336 2.256.336 3.888v13.008c0 1.344.192 2.256.576 2.736.416.48 1.12.72 2.112.72V38c-.64-.032-1.616-.064-2.928-.096a75.934 75.934 0 00-3.792-.096c-1.344 0-2.656.032-3.936.096-1.28.032-2.24.064-2.88.096v-1.008c.832 0 1.408-.24 1.728-.72.32-.48.48-1.392.48-2.736v-15.6c0-.672-.08-1.232-.24-1.68-.16-.448-.416-.784-.768-1.008-.32-.224-.768-.336-1.344-.336-.576 0-1.136.144-1.68.432a3.706 3.706 0 00-1.296 1.248c-.32.512-.48 1.104-.48 1.776v15.168c0 1.344.16 2.256.48 2.736.352.48.928.72 1.728.72V38c-.608-.032-1.504-.064-2.688-.096a67.606 67.606 0 00-3.648-.096c-1.344 0-2.704.032-4.08.096-1.376.032-2.416.064-3.12.096v-1.008c.992 0 1.68-.24 2.064-.72.416-.48.624-1.392.624-2.736V18.32c0-1.44-.192-2.496-.576-3.168-.384-.704-1.088-1.056-2.112-1.056v-1.008c1.024.096 2.016.144 2.976.144 1.6 0 3.088-.048 4.464-.144a40.924 40.924 0 003.888-.528v3.456c.768-1.28 1.792-2.192 3.072-2.736 1.312-.576 2.832-.864 4.56-.864zm20.405 34.608c-2.176 0-4.064-.176-5.664-.528-1.568-.32-2.784-.8-3.648-1.44-.864-.608-1.296-1.36-1.296-2.256 0-.896.448-1.744 1.344-2.544.896-.768 2.32-1.376 4.272-1.824l.48.768c-.512.608-.864 1.152-1.056 1.632a4.84 4.84 0 00-.24 1.44c0 1.248.56 2.208 1.68 2.88 1.152.704 2.752 1.056 4.8 1.056 1.44 0 2.64-.208 3.6-.624.992-.384 1.728-.928 2.208-1.632a3.978 3.978 0 00.768-2.4c0-.896-.336-1.664-1.008-2.304-.672-.64-2.032-.96-4.08-.96h-2.592c-1.472 0-2.704-.192-3.696-.576-.992-.384-1.744-.912-2.256-1.584-.512-.704-.768-1.52-.768-2.448 0-1.504.592-2.768 1.776-3.792 1.184-1.024 2.704-1.936 4.56-2.736l.432.384c-.32.224-.656.496-1.008.816-.352.32-.528.784-.528 1.392 0 1.024.576 1.536 1.728 1.536h4.656c2.08 0 3.888.224 5.424.672 1.568.448 2.784 1.184 3.648 2.208.896.992 1.344 2.304 1.344 3.936 0 1.6-.528 3.072-1.584 4.416-1.024 1.376-2.624 2.464-4.8 3.264-2.176.832-5.008 1.248-8.496 1.248zm.672-19.248c-1.984 0-3.76-.272-5.328-.816-1.536-.544-2.752-1.376-3.648-2.496-.896-1.152-1.344-2.608-1.344-4.368 0-1.76.448-3.2 1.344-4.32.896-1.152 2.112-2 3.648-2.544 1.568-.544 3.344-.816 5.328-.816 1.984 0 3.744.272 5.28.816 1.568.544 2.8 1.392 3.696 2.544.896 1.12 1.344 2.56 1.344 4.32 0 1.76-.448 3.216-1.344 4.368-.896 1.12-2.128 1.952-3.696 2.496-1.536.544-3.296.816-5.28.816zm0-.864c.608 0 1.088-.496 1.44-1.488.352-.992.528-2.768.528-5.328 0-2.56-.176-4.336-.528-5.328-.352-.992-.832-1.488-1.44-1.488s-1.088.496-1.44 1.488c-.352.992-.528 2.768-.528 5.328 0 2.56.176 4.336.528 5.328.352.992.832 1.488 1.44 1.488zm7.824-10.272l-1.008-.336c.512-1.344 1.296-2.416 2.352-3.216 1.088-.832 2.272-1.248 3.552-1.248 1.12 0 1.952.304 2.496.912.544.608.816 1.36.816 2.256 0 .928-.256 1.648-.768 2.16a2.338 2.338 0 01-1.776.768c-.608 0-1.168-.208-1.68-.624-.48-.416-.752-1.04-.816-1.872-.064-.832.24-1.888.912-3.168l.192.336c-1.12.416-2 .928-2.64 1.536-.64.608-1.184 1.44-1.632 2.496z" fill="#14213D"/><path d="M215.706 4.016v.912c-1.088.288-2.304.816-3.648 1.584-1.312.768-2.72 2-4.224 3.696l-8.832 10.032 3.888-5.088 11.376 18.96a10.91 10.91 0 001.248 1.68c.416.448.976.864 1.68 1.248V38a91.106 91.106 0 00-4.32-.096 203.384 203.384 0 00-4.32-.048c-.736 0-1.648.016-2.736.048-1.088 0-2.464.032-4.128.096v-.96c1.504-.064 2.368-.24 2.592-.528.256-.288.144-.832-.336-1.632l-6.96-11.76c-.32-.576-.608-1.008-.864-1.296-.256-.288-.512-.496-.768-.624-.224-.128-.528-.208-.912-.24v-1.008c1.408-.064 2.736-.528 3.984-1.392 1.248-.896 2.752-2.336 4.512-4.32l1.632-1.824c1.344-1.504 2.048-2.8 2.112-3.888.096-1.12-.24-1.984-1.008-2.592-.736-.64-1.712-.976-2.928-1.008v-.912c.896.032 1.728.064 2.496.096.8 0 1.632.016 2.496.048h3.12c1.024 0 1.92-.016 2.688-.048.8-.032 1.52-.064 2.16-.096zm-17.568 0v.96c-.96.032-1.696.16-2.208.384-.48.192-.8.576-.96 1.152-.16.544-.24 1.408-.24 2.592v23.808c0 1.152.08 2.016.24 2.592.192.576.528.96 1.008 1.152.48.192 1.2.32 2.16.384V38c-.928-.064-2.128-.096-3.6-.096-1.44-.032-2.912-.048-4.416-.048-1.728 0-3.36.016-4.896.048-1.504 0-2.72.032-3.648.096v-.96c.992-.064 1.728-.192 2.208-.384.48-.192.8-.576.96-1.152.16-.576.24-1.44.24-2.592V9.104c0-1.184-.08-2.048-.24-2.592-.16-.576-.496-.96-1.008-1.152-.48-.224-1.2-.352-2.16-.384v-.96c.928.032 2.144.064 3.648.096 1.536.032 3.168.048 4.896.048 1.504 0 2.976-.016 4.416-.048 1.472-.032 2.672-.064 3.6-.096zM224.15.464c1.664 0 2.944.352 3.84 1.056.928.672 1.392 1.696 1.392 3.072 0 1.376-.464 2.416-1.392 3.12-.896.672-2.176 1.008-3.84 1.008-1.664 0-2.96-.336-3.888-1.008-.896-.704-1.344-1.744-1.344-3.12 0-1.376.448-2.4 1.344-3.072.928-.704 2.224-1.056 3.888-1.056zm4.608 12.096v20.976c0 1.344.192 2.256.576 2.736.416.48 1.12.72 2.112.72V38c-.64-.032-1.6-.064-2.88-.096a78.838 78.838 0 00-3.936-.096c-1.344 0-2.704.032-4.08.096-1.376.032-2.416.064-3.12.096v-1.008c.992 0 1.68-.24 2.064-.72.416-.48.624-1.392.624-2.736V18.32c0-1.44-.192-2.496-.576-3.168-.384-.704-1.088-1.056-2.112-1.056v-1.008c1.024.096 2.016.144 2.976.144 1.6 0 3.088-.048 4.464-.144a40.924 40.924 0 003.888-.528zm15.604-7.248v7.776h4.704v.96h-4.704v19.92c0 .608.112 1.056.336 1.344.224.256.592.384 1.104.384.352 0 .768-.096 1.248-.288.48-.224.928-.592 1.344-1.104l.72.576a8 8 0 01-2.688 2.784c-1.088.672-2.464 1.008-4.128 1.008-1.056 0-2.016-.144-2.88-.432-.832-.256-1.52-.656-2.064-1.2-.704-.704-1.152-1.568-1.344-2.592-.192-1.056-.288-2.416-.288-4.08v-16.32h-3.648v-.96h3.648V7.424c1.696 0 3.232-.16 4.608-.48a15.687 15.687 0 004.032-1.632zm12.173 33.024c-1.504 0-2.736-.288-3.696-.864-.96-.576-1.664-1.328-2.112-2.256a7.079 7.079 0 01-.624-2.928c0-1.344.304-2.432.912-3.264a6.663 6.663 0 012.352-2.064 17.99 17.99 0 013.12-1.344 366.38 366.38 0 003.072-1.008c.992-.352 1.792-.752 2.4-1.2.608-.48.912-1.088.912-1.824v-4.272c0-.512-.096-1.072-.288-1.68a3.273 3.273 0 00-.96-1.584c-.48-.448-1.2-.672-2.16-.672-.512 0-1.008.08-1.488.24-.448.128-.848.32-1.2.576 1.12.416 1.936 1.008 2.448 1.776.512.736.768 1.552.768 2.448 0 1.28-.448 2.288-1.344 3.024-.896.736-1.952 1.104-3.168 1.104-1.28 0-2.272-.4-2.976-1.2-.704-.8-1.056-1.792-1.056-2.976 0-.992.24-1.824.72-2.496.512-.704 1.264-1.344 2.256-1.92.96-.544 2.112-.928 3.456-1.152a22.54 22.54 0 014.224-.384c1.568 0 3.024.16 4.368.48a6.648 6.648 0 013.456 1.92c.672.704 1.104 1.584 1.296 2.64.192 1.056.288 2.416.288 4.08V34.4c0 .8.048 1.344.144 1.632.128.288.336.432.624.432.256 0 .496-.08.72-.24.256-.16.496-.32.72-.48l.48.816c-.704.608-1.584 1.056-2.64 1.344a12.005 12.005 0 01-3.264.432c-1.376 0-2.448-.16-3.216-.48-.736-.352-1.264-.8-1.584-1.344a4.544 4.544 0 01-.48-1.824 9.095 9.095 0 01-2.544 2.64c-.992.672-2.304 1.008-3.936 1.008zm4.56-3.84c.352 0 .656-.048.912-.144.288-.128.576-.352.864-.672V23.552a6.176 6.176 0 01-.912 1.248l-1.104 1.2a15.44 15.44 0 00-1.104 1.344c-.32.48-.592 1.04-.816 1.68-.192.608-.288 1.328-.288 2.16 0 1.216.224 2.08.672 2.592.48.48 1.072.72 1.776.72z" fill="#FCA311"/></svg>